<svg xmlns="http://www.w3.org/2000/svg" xmlns:xlink="http://www.w3.org/1999/xlink" width="500" zoomAndPan="magnify" viewBox="0 0 375 187.499995" height="250" preserveAspectRatio="xMidYMid meet" version="1.0"><defs><g/></defs><g fill="#ffffff" fill-opacity="1"><g transform="translate(88.982942, 108.535266)"><g><path d="M 48.109375 0 L 42.5625 -23.40625 L 41.265625 -30.46875 L 40.390625 -36.140625 L 40.140625 -36.140625 C 38.722656 -28.054688 37.769531 -22.957031 37.28125 -20.84375 L 32.296875 0 L 14.46875 0 L 1.078125 -49.109375 L 17.765625 -49.109375 L 21.765625 -30.25 C 23.035156 -23.78125 23.769531 -18.40625 23.96875 -14.125 L 24.234375 -14.125 C 24.316406 -16.789062 25.109375 -21.847656 26.609375 -29.296875 L 31.15625 -49.109375 L 49.890625 -49.109375 L 54.046875 -29.046875 C 55.378906 -22.648438 56.21875 -17.675781 56.5625 -14.125 L 56.828125 -14.125 C 56.992188 -16.320312 57.28125 -19.0625 57.6875 -22.34375 C 58.09375 -25.625 58.539062 -28.257812 59.03125 -30.25 L 63.359375 -49.109375 L 79.703125 -49.109375 L 66.234375 0 Z M 48.109375 0 "/></g></g></g><g fill="#ffffff" fill-opacity="1"><g transform="translate(169.764316, 108.535266)"><g><path d="M 29.5625 0.859375 C 21.382812 0.859375 15.035156 -1.3125 10.515625 -5.65625 C 5.992188 -10 3.734375 -16.191406 3.734375 -24.234375 C 3.734375 -32.523438 5.828125 -38.882812 10.015625 -43.3125 C 14.203125 -47.75 20.179688 -49.96875 27.953125 -49.96875 C 35.347656 -49.96875 41.0625 -48.039062 45.09375 -44.1875 C 49.125 -40.332031 51.140625 -34.773438 51.140625 -27.515625 L 51.140625 -19.984375 L 20.84375 -19.984375 C 20.957031 -17.234375 21.960938 -15.078125 23.859375 -13.515625 C 25.753906 -11.960938 28.332031 -11.1875 31.59375 -11.1875 C 34.570312 -11.1875 37.3125 -11.46875 39.8125 -12.03125 C 42.3125 -12.59375 45.019531 -13.550781 47.9375 -14.90625 L 47.9375 -2.734375 C 45.28125 -1.367188 42.535156 -0.429688 39.703125 0.078125 C 36.867188 0.597656 33.488281 0.859375 29.5625 0.859375 Z M 28.5625 -38.4375 C 26.570312 -38.4375 24.90625 -37.804688 23.5625 -36.546875 C 22.21875 -35.296875 21.425781 -33.328125 21.1875 -30.640625 L 35.75 -30.640625 C 35.695312 -33.015625 35.023438 -34.90625 33.734375 -36.3125 C 32.453125 -37.726562 30.726562 -38.4375 28.5625 -38.4375 Z M 28.5625 -38.4375 "/></g></g></g><g fill="#ffffff" fill-opacity="1"><g transform="translate(224.629776, 108.535266)"><g><path d="M 35.84375 -49.96875 C 41.1875 -49.96875 45.425781 -47.726562 48.5625 -43.25 C 51.695312 -38.769531 53.265625 -32.570312 53.265625 -24.65625 C 53.265625 -16.6875 51.679688 -10.441406 48.515625 -5.921875 C 45.359375 -1.398438 40.960938 0.859375 35.328125 0.859375 C 33.503906 0.859375 31.882812 0.664062 30.46875 0.28125 C 29.050781 -0.101562 27.785156 -0.644531 26.671875 -1.34375 C 25.566406 -2.039062 24.273438 -3.195312 22.796875 -4.8125 L 21.765625 -4.8125 L 19.078125 0 L 5.84375 0 L 5.84375 -67.4375 L 22.796875 -67.4375 L 22.796875 -52.1875 C 22.796875 -50.363281 22.59375 -47.226562 22.1875 -42.78125 L 22.796875 -42.78125 C 24.441406 -45.320312 26.34375 -47.15625 28.5 -48.28125 C 30.65625 -49.40625 33.101562 -49.96875 35.84375 -49.96875 Z M 29.640625 -36.671875 C 27.273438 -36.671875 25.539062 -35.847656 24.4375 -34.203125 C 23.34375 -32.554688 22.796875 -29.96875 22.796875 -26.4375 L 22.796875 -24.0625 C 22.796875 -20.039062 23.34375 -17.15625 24.4375 -15.40625 C 25.539062 -13.65625 27.332031 -12.78125 29.8125 -12.78125 C 31.8125 -12.78125 33.34375 -13.796875 34.40625 -15.828125 C 35.476562 -17.867188 36.015625 -20.867188 36.015625 -24.828125 C 36.015625 -32.722656 33.890625 -36.671875 29.640625 -36.671875 Z M 29.640625 -36.671875 "/></g></g></g><g fill="#ffffff" fill-opacity="1"><g transform="translate(93.856664, 130.747443)"><g><path d="M 8.546875 -12.25 C 7.554688 -12.25 6.78125 -11.84375 6.21875 -11.03125 C 5.664062 -10.21875 5.390625 -9.097656 5.390625 -7.671875 C 5.390625 -4.691406 6.519531 -3.203125 8.78125 -3.203125 C 9.46875 -3.203125 10.128906 -3.296875 10.765625 -3.484375 C 11.410156 -3.679688 12.054688 -3.910156 12.703125 -4.171875 L 12.703125 -0.640625 C 11.421875 -0.0664062 9.960938 0.21875 8.328125 0.21875 C 5.992188 0.21875 4.203125 -0.457031 2.953125 -1.8125 C 1.710938 -3.164062 1.09375 -5.125 1.09375 -7.6875 C 1.09375 -9.289062 1.394531 -10.695312 2 -11.90625 C 2.601562 -13.113281 3.46875 -14.046875 4.59375 -14.703125 C 5.726562 -15.359375 7.0625 -15.6875 8.59375 -15.6875 C 10.269531 -15.6875 11.867188 -15.320312 13.390625 -14.59375 L 12.109375 -11.296875 C 11.535156 -11.566406 10.960938 -11.789062 10.390625 -11.96875 C 9.816406 -12.15625 9.203125 -12.25 8.546875 -12.25 Z M 8.546875 -12.25 "/></g></g></g><g fill="#ffffff" fill-opacity="1"><g transform="translate(107.910514, 130.747443)"><g><path d="M 9.234375 0 L 8.453125 -1.59375 L 8.359375 -1.59375 C 7.804688 -0.894531 7.238281 -0.414062 6.65625 -0.15625 C 6.082031 0.09375 5.335938 0.21875 4.421875 0.21875 C 3.296875 0.21875 2.40625 -0.117188 1.75 -0.796875 C 1.101562 -1.472656 0.78125 -2.425781 0.78125 -3.65625 C 0.78125 -4.9375 1.222656 -5.882812 2.109375 -6.5 C 3.003906 -7.125 4.289062 -7.476562 5.96875 -7.5625 L 7.96875 -7.625 L 7.96875 -7.796875 C 7.96875 -8.785156 7.484375 -9.28125 6.515625 -9.28125 C 5.640625 -9.28125 4.53125 -8.984375 3.1875 -8.390625 L 1.984375 -11.109375 C 3.378906 -11.828125 5.144531 -12.1875 7.28125 -12.1875 C 8.8125 -12.1875 10 -11.804688 10.84375 -11.046875 C 11.6875 -10.285156 12.109375 -9.222656 12.109375 -7.859375 L 12.109375 0 Z M 6.171875 -2.703125 C 6.671875 -2.703125 7.097656 -2.859375 7.453125 -3.171875 C 7.816406 -3.492188 8 -3.910156 8 -4.421875 L 8 -5.34375 L 7.046875 -5.3125 C 5.679688 -5.257812 5 -4.757812 5 -3.8125 C 5 -3.070312 5.390625 -2.703125 6.171875 -2.703125 Z M 6.171875 -2.703125 "/></g></g></g><g fill="#ffffff" fill-opacity="1"><g transform="translate(121.403896, 130.747443)"><g><path d="M 8.65625 -12.1875 C 9.019531 -12.1875 9.363281 -12.160156 9.6875 -12.109375 L 9.921875 -12.0625 L 9.546875 -8.15625 C 9.210938 -8.25 8.742188 -8.296875 8.140625 -8.296875 C 7.234375 -8.296875 6.578125 -8.085938 6.171875 -7.671875 C 5.765625 -7.253906 5.5625 -6.660156 5.5625 -5.890625 L 5.5625 0 L 1.421875 0 L 1.421875 -11.984375 L 4.5 -11.984375 L 5.15625 -10.0625 L 5.34375 -10.0625 C 5.695312 -10.695312 6.179688 -11.207031 6.796875 -11.59375 C 7.410156 -11.988281 8.03125 -12.1875 8.65625 -12.1875 Z M 8.65625 -12.1875 "/></g></g></g><g fill="#ffffff" fill-opacity="1"><g transform="translate(131.566238, 130.747443)"><g><path d="M 7.21875 0.21875 C 5.21875 0.21875 3.664062 -0.3125 2.5625 -1.375 C 1.457031 -2.4375 0.90625 -3.945312 0.90625 -5.90625 C 0.90625 -7.9375 1.414062 -9.488281 2.4375 -10.5625 C 3.457031 -11.644531 4.921875 -12.1875 6.828125 -12.1875 C 8.628906 -12.1875 10.019531 -11.71875 11 -10.78125 C 11.988281 -9.84375 12.484375 -8.488281 12.484375 -6.71875 L 12.484375 -4.875 L 5.09375 -4.875 C 5.113281 -4.207031 5.351562 -3.679688 5.8125 -3.296875 C 6.28125 -2.921875 6.910156 -2.734375 7.703125 -2.734375 C 8.429688 -2.734375 9.097656 -2.800781 9.703125 -2.9375 C 10.316406 -3.070312 10.976562 -3.304688 11.6875 -3.640625 L 11.6875 -0.671875 C 11.039062 -0.335938 10.375 -0.109375 9.6875 0.015625 C 9 0.148438 8.175781 0.21875 7.21875 0.21875 Z M 6.96875 -9.375 C 6.476562 -9.375 6.066406 -9.21875 5.734375 -8.90625 C 5.410156 -8.601562 5.222656 -8.125 5.171875 -7.46875 L 8.71875 -7.46875 C 8.707031 -8.050781 8.546875 -8.515625 8.234375 -8.859375 C 7.921875 -9.203125 7.5 -9.375 6.96875 -9.375 Z M 6.96875 -9.375 "/></g></g></g><g fill="#ffffff" fill-opacity="1"><g transform="translate(144.953872, 130.747443)"><g><path d="M 7.21875 0.21875 C 5.21875 0.21875 3.664062 -0.3125 2.5625 -1.375 C 1.457031 -2.4375 0.90625 -3.945312 0.90625 -5.90625 C 0.90625 -7.9375 1.414062 -9.488281 2.4375 -10.5625 C 3.457031 -11.644531 4.921875 -12.1875 6.828125 -12.1875 C 8.628906 -12.1875 10.019531 -11.71875 11 -10.78125 C 11.988281 -9.84375 12.484375 -8.488281 12.484375 -6.71875 L 12.484375 -4.875 L 5.09375 -4.875 C 5.113281 -4.207031 5.351562 -3.679688 5.8125 -3.296875 C 6.28125 -2.921875 6.910156 -2.734375 7.703125 -2.734375 C 8.429688 -2.734375 9.097656 -2.800781 9.703125 -2.9375 C 10.316406 -3.070312 10.976562 -3.304688 11.6875 -3.640625 L 11.6875 -0.671875 C 11.039062 -0.335938 10.375 -0.109375 9.6875 0.015625 C 9 0.148438 8.175781 0.21875 7.21875 0.21875 Z M 6.96875 -9.375 C 6.476562 -9.375 6.066406 -9.21875 5.734375 -8.90625 C 5.410156 -8.601562 5.222656 -8.125 5.171875 -7.46875 L 8.71875 -7.46875 C 8.707031 -8.050781 8.546875 -8.515625 8.234375 -8.859375 C 7.921875 -9.203125 7.5 -9.375 6.96875 -9.375 Z M 6.96875 -9.375 "/></g></g></g><g fill="#ffffff" fill-opacity="1"><g transform="translate(158.341506, 130.747443)"><g><path d="M 8.65625 -12.1875 C 9.019531 -12.1875 9.363281 -12.160156 9.6875 -12.109375 L 9.921875 -12.0625 L 9.546875 -8.15625 C 9.210938 -8.25 8.742188 -8.296875 8.140625 -8.296875 C 7.234375 -8.296875 6.578125 -8.085938 6.171875 -7.671875 C 5.765625 -7.253906 5.5625 -6.660156 5.5625 -5.890625 L 5.5625 0 L 1.421875 0 L 1.421875 -11.984375 L 4.5 -11.984375 L 5.15625 -10.0625 L 5.34375 -10.0625 C 5.695312 -10.695312 6.179688 -11.207031 6.796875 -11.59375 C 7.410156 -11.988281 8.03125 -12.1875 8.65625 -12.1875 Z M 8.65625 -12.1875 "/></g></g></g><g fill="#ffffff" fill-opacity="1"><g transform="translate(168.503848, 130.747443)"><g/></g></g><g fill="#ffffff" fill-opacity="1"><g transform="translate(174.129615, 130.747443)"><g><path d="M 11.15625 0 L 10.390625 -2.890625 L 5.375 -2.890625 L 4.59375 0 L 0 0 L 5.046875 -15.515625 L 10.609375 -15.515625 L 15.71875 0 Z M 9.53125 -6.328125 L 8.859375 -8.859375 C 8.703125 -9.421875 8.515625 -10.148438 8.296875 -11.046875 C 8.078125 -11.941406 7.929688 -12.582031 7.859375 -12.96875 C 7.796875 -12.613281 7.671875 -12.023438 7.484375 -11.203125 C 7.296875 -10.378906 6.878906 -8.753906 6.234375 -6.328125 Z M 9.53125 -6.328125 "/></g></g></g><g fill="#ffffff" fill-opacity="1"><g transform="translate(189.854276, 130.747443)"><g><path d="M 6.890625 0.21875 C 4.921875 0.21875 3.429688 -0.304688 2.421875 -1.359375 C 1.410156 -2.421875 0.90625 -3.945312 0.90625 -5.9375 C 0.90625 -7.925781 1.453125 -9.460938 2.546875 -10.546875 C 3.640625 -11.640625 5.195312 -12.1875 7.21875 -12.1875 C 8.601562 -12.1875 9.910156 -11.882812 11.140625 -11.28125 L 9.921875 -8.234375 C 9.421875 -8.441406 8.957031 -8.613281 8.53125 -8.75 C 8.113281 -8.882812 7.675781 -8.953125 7.21875 -8.953125 C 6.539062 -8.953125 6.019531 -8.6875 5.65625 -8.15625 C 5.289062 -7.632812 5.109375 -6.898438 5.109375 -5.953125 C 5.109375 -4.035156 5.816406 -3.078125 7.234375 -3.078125 C 8.441406 -3.078125 9.601562 -3.429688 10.71875 -4.140625 L 10.71875 -0.84375 C 9.65625 -0.132812 8.378906 0.21875 6.890625 0.21875 Z M 6.890625 0.21875 "/></g></g></g><g fill="#ffffff" fill-opacity="1"><g transform="translate(201.528801, 130.747443)"><g><path d="M 9.234375 0 L 8.453125 -1.59375 L 8.359375 -1.59375 C 7.804688 -0.894531 7.238281 -0.414062 6.65625 -0.15625 C 6.082031 0.09375 5.335938 0.21875 4.421875 0.21875 C 3.296875 0.21875 2.40625 -0.117188 1.75 -0.796875 C 1.101562 -1.472656 0.78125 -2.425781 0.78125 -3.65625 C 0.78125 -4.9375 1.222656 -5.882812 2.109375 -6.5 C 3.003906 -7.125 4.289062 -7.476562 5.96875 -7.5625 L 7.96875 -7.625 L 7.96875 -7.796875 C 7.96875 -8.785156 7.484375 -9.28125 6.515625 -9.28125 C 5.640625 -9.28125 4.53125 -8.984375 3.1875 -8.390625 L 1.984375 -11.109375 C 3.378906 -11.828125 5.144531 -12.1875 7.28125 -12.1875 C 8.8125 -12.1875 10 -11.804688 10.84375 -11.046875 C 11.6875 -10.285156 12.109375 -9.222656 12.109375 -7.859375 L 12.109375 0 Z M 6.171875 -2.703125 C 6.671875 -2.703125 7.097656 -2.859375 7.453125 -3.171875 C 7.816406 -3.492188 8 -3.910156 8 -4.421875 L 8 -5.34375 L 7.046875 -5.3125 C 5.679688 -5.257812 5 -4.757812 5 -3.8125 C 5 -3.070312 5.390625 -2.703125 6.171875 -2.703125 Z M 6.171875 -2.703125 "/></g></g></g><g fill="#ffffff" fill-opacity="1"><g transform="translate(215.022183, 130.747443)"><g><path d="M 5.15625 0.21875 C 4.300781 0.21875 3.550781 -0.0234375 2.90625 -0.515625 C 2.269531 -1.003906 1.773438 -1.71875 1.421875 -2.65625 C 1.078125 -3.601562 0.90625 -4.707031 0.90625 -5.96875 C 0.90625 -7.914062 1.296875 -9.4375 2.078125 -10.53125 C 2.859375 -11.632812 3.9375 -12.1875 5.3125 -12.1875 C 5.976562 -12.1875 6.5625 -12.050781 7.0625 -11.78125 C 7.570312 -11.519531 8.035156 -11.070312 8.453125 -10.4375 L 8.53125 -10.4375 C 8.394531 -11.375 8.328125 -12.3125 8.328125 -13.25 L 8.328125 -16.453125 L 12.5 -16.453125 L 12.5 0 L 9.375 0 L 8.484375 -1.515625 L 8.328125 -1.515625 C 7.617188 -0.359375 6.5625 0.21875 5.15625 0.21875 Z M 6.84375 -3.0625 C 7.5 -3.0625 7.960938 -3.265625 8.234375 -3.671875 C 8.515625 -4.085938 8.664062 -4.734375 8.6875 -5.609375 L 8.6875 -5.9375 C 8.6875 -6.988281 8.53125 -7.738281 8.21875 -8.1875 C 7.914062 -8.632812 7.441406 -8.859375 6.796875 -8.859375 C 6.253906 -8.859375 5.832031 -8.601562 5.53125 -8.09375 C 5.238281 -7.582031 5.09375 -6.851562 5.09375 -5.90625 C 5.09375 -4.976562 5.242188 -4.269531 5.546875 -3.78125 C 5.847656 -3.300781 6.28125 -3.0625 6.84375 -3.0625 Z M 6.84375 -3.0625 "/></g></g></g><g fill="#ffffff" fill-opacity="1"><g transform="translate(228.949136, 130.747443)"><g><path d="M 7.21875 0.21875 C 5.21875 0.21875 3.664062 -0.3125 2.5625 -1.375 C 1.457031 -2.4375 0.90625 -3.945312 0.90625 -5.90625 C 0.90625 -7.9375 1.414062 -9.488281 2.4375 -10.5625 C 3.457031 -11.644531 4.921875 -12.1875 6.828125 -12.1875 C 8.628906 -12.1875 10.019531 -11.71875 11 -10.78125 C 11.988281 -9.84375 12.484375 -8.488281 12.484375 -6.71875 L 12.484375 -4.875 L 5.09375 -4.875 C 5.113281 -4.207031 5.351562 -3.679688 5.8125 -3.296875 C 6.28125 -2.921875 6.910156 -2.734375 7.703125 -2.734375 C 8.429688 -2.734375 9.097656 -2.800781 9.703125 -2.9375 C 10.316406 -3.070312 10.976562 -3.304688 11.6875 -3.640625 L 11.6875 -0.671875 C 11.039062 -0.335938 10.375 -0.109375 9.6875 0.015625 C 9 0.148438 8.175781 0.21875 7.21875 0.21875 Z M 6.96875 -9.375 C 6.476562 -9.375 6.066406 -9.21875 5.734375 -8.90625 C 5.410156 -8.601562 5.222656 -8.125 5.171875 -7.46875 L 8.71875 -7.46875 C 8.707031 -8.050781 8.546875 -8.515625 8.234375 -8.859375 C 7.921875 -9.203125 7.5 -9.375 6.96875 -9.375 Z M 6.96875 -9.375 "/></g></g></g><g fill="#ffffff" fill-opacity="1"><g transform="translate(242.33677, 130.747443)"><g><path d="M 16.140625 0 L 16.140625 -6.515625 C 16.140625 -7.328125 16.023438 -7.9375 15.796875 -8.34375 C 15.578125 -8.75 15.226562 -8.953125 14.75 -8.953125 C 14.113281 -8.953125 13.644531 -8.675781 13.34375 -8.125 C 13.050781 -7.582031 12.90625 -6.734375 12.90625 -5.578125 L 12.90625 0 L 8.765625 0 L 8.765625 -6.515625 C 8.765625 -7.328125 8.65625 -7.9375 8.4375 -8.34375 C 8.226562 -8.75 7.890625 -8.953125 7.421875 -8.953125 C 6.773438 -8.953125 6.300781 -8.660156 6 -8.078125 C 5.707031 -7.503906 5.5625 -6.5625 5.5625 -5.25 L 5.5625 0 L 1.421875 0 L 1.421875 -11.984375 L 4.546875 -11.984375 L 5.0625 -10.5 L 5.3125 -10.5 C 5.625 -11.050781 6.082031 -11.46875 6.6875 -11.75 C 7.289062 -12.039062 7.976562 -12.1875 8.75 -12.1875 C 10.46875 -12.1875 11.675781 -11.660156 12.375 -10.609375 L 12.703125 -10.609375 C 13.046875 -11.109375 13.519531 -11.492188 14.125 -11.765625 C 14.726562 -12.046875 15.390625 -12.1875 16.109375 -12.1875 C 17.523438 -12.1875 18.570312 -11.820312 19.25 -11.09375 C 19.925781 -10.375 20.265625 -9.273438 20.265625 -7.796875 L 20.265625 0 Z M 16.140625 0 "/></g></g></g><g fill="#ffffff" fill-opacity="1"><g transform="translate(263.99386, 130.747443)"><g><path d="M -0.015625 -11.984375 L 4.328125 -11.984375 L 6.359375 -5.109375 C 6.460938 -4.742188 6.53125 -4.3125 6.5625 -3.8125 L 6.65625 -3.8125 C 6.707031 -4.289062 6.789062 -4.71875 6.90625 -5.09375 L 8.984375 -11.984375 L 13.203125 -11.984375 L 8.46875 0.765625 C 7.863281 2.378906 7.117188 3.519531 6.234375 4.1875 C 5.347656 4.863281 4.191406 5.203125 2.765625 5.203125 C 2.222656 5.203125 1.660156 5.140625 1.078125 5.015625 L 1.078125 1.78125 C 1.453125 1.863281 1.878906 1.90625 2.359375 1.90625 C 2.722656 1.90625 3.039062 1.832031 3.3125 1.6875 C 3.59375 1.550781 3.832031 1.351562 4.03125 1.09375 C 4.238281 0.832031 4.457031 0.410156 4.6875 -0.171875 Z M -0.015625 -11.984375 "/></g></g></g><g fill="#ffffff" fill-opacity="1"><g transform="translate(30.97747, 110.405278)"><g><path d="M -0.09375 -51.3125 L 18.5625 -51.3125 L 27.265625 -21.875 C 27.679688 -20.332031 27.96875 -18.472656 28.125 -16.296875 L 28.484375 -16.296875 C 28.722656 -18.378906 29.085938 -20.207031 29.578125 -21.78125 L 38.5 -51.3125 L 56.5625 -51.3125 L 36.28125 3.265625 C 33.675781 10.203125 30.476562 15.101562 26.6875 17.96875 C 22.90625 20.84375 17.960938 22.28125 11.859375 22.28125 C 9.503906 22.28125 7.09375 22.023438 4.625 21.515625 L 4.625 7.609375 C 6.21875 7.972656 8.039062 8.15625 10.09375 8.15625 C 11.664062 8.15625 13.039062 7.851562 14.21875 7.25 C 15.394531 6.644531 16.421875 5.789062 17.296875 4.6875 C 18.171875 3.582031 19.109375 1.78125 20.109375 -0.71875 Z M -0.09375 -51.3125 "/></g></g></g><g fill="#ffffff" fill-opacity="1"><g transform="translate(276.089966, 134.741359)"><g><path d="M 44.609375 -73.4375 L 17.625 0.984375 L 0.5 0.984375 L 27.484375 -73.4375 Z M 44.609375 -73.4375 "/></g></g></g><g fill="#ffffff" fill-opacity="1"><g transform="translate(299.195849, 134.741359)"><g><path d="M 44.609375 -73.4375 L 17.625 0.984375 L 0.5 0.984375 L 27.484375 -73.4375 Z M 44.609375 -73.4375 "/></g></g></g></svg>